Moderustic-Medium.ufo
<glyph name="dollar" format="2">
  <advance width="600"/>
  <unicode hex="0024"/>
  <outline>
    <contour>
      <point x="109" y="183.319" type="curve"/>
      <point x="38" y="116.728" type="line"/>
      <point x="102" y="41.6959"/>
      <point x="189" y="3.242"/>
      <point x="300" y="3.242" type="curve" smooth="yes"/>
      <point x="455" y="3.242"/>
      <point x="551" y="78.3914"/>
      <point x="551" y="193.934" type="curve" smooth="yes"/>
      <point x="551" y="293.507"/>
      <point x="479.004" y="353.644"/>
      <point x="324" y="386.504" type="curve" smooth="yes"/>
      <point x="222.004" y="408.127"/>
      <point x="168" y="439.109"/>
      <point x="168" y="499.228" type="curve" smooth="yes"/>
      <point x="168" y="557.469"/>
      <point x="219" y="603.498"/>
      <point x="301" y="603.498" type="curve" smooth="yes"/>
      <point x="368" y="603.498"/>
      <point x="426" y="572.207"/>
      <point x="477" y="517.211" type="curve"/>
      <point x="548" y="583.802" type="line"/>
      <point x="484" y="658.834"/>
      <point x="397" y="697.288"/>
      <point x="292" y="697.288" type="curve" smooth="yes"/>
      <point x="141" y="697.288"/>
      <point x="48" y="617.442"/>
      <point x="48" y="496.263" type="curve" smooth="yes"/>
      <point x="48" y="391.054"/>
      <point x="118.967" y="327.968"/>
      <point x="290" y="294.299" type="curve" smooth="yes"/>
      <point x="390.967" y="274.424"/>
      <point x="434" y="249.21"/>
      <point x="434" y="198.484" type="curve" smooth="yes"/>
      <point x="434" y="139.304"/>
      <point x="377" y="97.032"/>
      <point x="291" y="97.032" type="curve" smooth="yes"/>
      <point x="218" y="97.032"/>
      <point x="160" y="128.323"/>
    </contour>
    <contour>
      <point x="284" y="-101" type="line"/>
      <point x="322" y="-101" type="line"/>
      <point x="322" y="780" type="line"/>
      <point x="284" y="780" type="line"/>
    </contour>
  </outline>
</glyph>
<glyph name="F" format="2">
  <advance width="540"/>
  <unicode hex="0046"/>
  <anchor x="270" y="719" name="top"/>
  <anchor x="281" y="-20" name="bottom"/>
  <outline>
    <contour>
      <point x="74" y="0" type="line"/>
      <point x="194" y="0" type="line" name="ab01"/>
      <point x="194" y="300" type="line" name="dv01"/>
      <point x="444" y="300" type="line"/>
      <point x="444" y="400" type="line"/>
      <point x="194" y="400" type="line" name="dv02"/>
      <point x="194" y="600" type="line" name="sv01"/>
      <point x="484" y="600" type="line"/>
      <point x="484" y="700" type="line" name="at01"/>
      <point x="74" y="700" type="line" name="dh01"/>
    </contour>
  </outline>
</glyph>
<glyph name="H" format="2">
  <advance width="736"/>
  <unicode hex="0048"/>
  <anchor x="368" y="-20" name="bottom"/>
  <anchor x="368" y="719" name="top"/>
  <anchor x="-28" y="500" name="topgr"/>
  <outline>
    <contour>
      <point x="87" y="0" type="line" name="ab01"/>
      <point x="207" y="0" type="line"/>
      <point x="207" y="320" type="line" name="dv01"/>
      <point x="529" y="320" type="line"/>
      <point x="529" y="0" type="line" name="ab02"/>
      <point x="649" y="0" type="line"/>
      <point x="649" y="700" type="line" name="at01"/>
      <point x="529" y="700" type="line"/>
      <point x="529" y="420" type="line"/>
      <point x="207" y="420" type="line" name="dv02"/>
      <point x="207" y="700" type="line" name="at02"/>
      <point x="87" y="700" type="line"/>
    </contour>
  </outline>
</glyph>
<glyph name="I" format="2">
  <advance width="326"/>
  <unicode hex="0049"/>
  <anchor x="163" y="719" name="top"/>
  <anchor x="163" y="-20" name="bottom"/>
  <anchor x="217" y="-2" name="ogonek"/>
  <anchor x="-13" y="500" name="topgr"/>
  <outline>
    <contour>
      <point x="103" y="0" type="line" name="ab01"/>
      <point x="223" y="0" type="line"/>
      <point x="223" y="700" type="line" name="at01"/>
      <point x="103" y="700" type="line"/>
    </contour>
  </outline>
</glyph>
<glyph name="N" format="2">
  <advance width="752"/>
  <unicode hex="004E"/>
  <anchor x="376" y="719" name="top"/>
  <anchor x="376" y="-20" name="bottom"/>
  <outline>
    <contour>
      <point x="87" y="0" type="line"/>
      <point x="207" y="0" type="line" name="ab01"/>
      <point x="207" y="515" type="line" name="iv01"/>
      <point x="555" y="0" type="line" name="ab02"/>
      <point x="665" y="0" type="line"/>
      <point x="665" y="700" type="line" name="at01"/>
      <point x="545" y="700" type="line"/>
      <point x="545" y="185" type="line" name="iv02"/>
      <point x="197" y="700" type="line" name="at02"/>
      <point x="87" y="700" type="line"/>
    </contour>
  </outline>
</glyph>
<glyph name="P" format="2">
  <advance width="644"/>
  <unicode hex="0050"/>
  <anchor x="322" y="719" name="top"/>
  <anchor x="322" y="-20" name="bottom"/>
  <outline>
    <contour>
      <point x="78" y="0" type="line"/>
      <point x="198" y="0" type="line" name="ab01"/>
      <point x="198" y="226" type="line" name="dv01"/>
      <point x="320" y="226" type="line" smooth="yes"/>
      <point x="488" y="226"/>
      <point x="595" y="319"/>
      <point x="595" y="466" type="curve" smooth="yes"/>
      <point x="595" y="608"/>
      <point x="494" y="700"/>
      <point x="334" y="700" type="curve" smooth="yes" name="at01"/>
      <point x="78" y="700" type="line"/>
    </contour>
    <contour>
      <point x="198" y="326" type="line" name="dv02"/>
      <point x="198" y="600" type="line" name="sv01"/>
      <point x="293" y="600" type="line" smooth="yes"/>
      <point x="419" y="600"/>
      <point x="475" y="557.846"/>
      <point x="475" y="467.516" type="curve" smooth="yes"/>
      <point x="475" y="373.172"/>
      <point x="413" y="326"/>
      <point x="293" y="326" type="curve" smooth="yes"/>
    </contour>
  </outline>
</glyph>
<glyph name="Q" format="2">
  <advance width="795"/>
  <unicode hex="0051"/>
  <anchor x="398" y="719" name="top"/>
  <anchor x="398" y="-20" name="bottom"/>
  <anchor x="523" y="-1" name="ogonek"/>
  <outline>
    <contour>
      <point x="400.938" y="84" type="curve" smooth="yes" name="dv02"/>
      <point x="262.45" y="84"/>
      <point x="177" y="183.84"/>
      <point x="177" y="349.967" type="curve" smooth="yes"/>
      <point x="177" y="518.071"/>
      <point x="255.575" y="616"/>
      <point x="393.08" y="616" type="curve" smooth="yes" name="dv03"/>
      <point x="534.514" y="616"/>
      <point x="618" y="520.126"/>
      <point x="618" y="350.045" type="curve" smooth="yes" name="dv05"/>
      <point x="618" y="184.907"/>
      <point x="537.461" y="84"/>
    </contour>
    <contour>
      <point x="397" y="-20" type="curve" smooth="yes" name="dv01"/>
      <point x="599" y="-20"/>
      <point x="742" y="107"/>
      <point x="742" y="350" type="curve" smooth="yes" name="dv06"/>
      <point x="742" y="575"/>
      <point x="612" y="720"/>
      <point x="398" y="720" type="curve" smooth="yes" name="dv04"/>
      <point x="192" y="720"/>
      <point x="53" y="586"/>
      <point x="53" y="350" type="curve" smooth="yes"/>
      <point x="53" y="109"/>
      <point x="196" y="-20"/>
    </contour>
    <contour>
      <point x="360" y="-3" type="line" name="ab02"/>
      <point x="360" y="-180"/>
      <point x="412" y="-204"/>
      <point x="644" y="-204" type="curve"/>
      <point x="644" y="-111" type="line"/>
      <point x="494" y="-111"/>
      <point x="463" y="-117"/>
      <point x="463" y="-3" type="curve" name="ab01"/>
    </contour>
  </outline>
</glyph>
<glyph name="R" format="2">
  <advance width="648"/>
  <unicode hex="0052"/>
  <anchor x="324" y="719" name="top"/>
  <anchor x="324" y="-20" name="bottom"/>
  <outline>
    <contour>
      <point x="78" y="0" type="line"/>
      <point x="198" y="0" type="line" name="ab01"/>
      <point x="198" y="600" type="line" name="sv01"/>
      <point x="308" y="600" type="line" smooth="yes"/>
      <point x="441" y="600"/>
      <point x="479" y="565"/>
      <point x="479" y="478" type="curve" smooth="yes"/>
      <point x="479" y="389"/>
      <point x="439" y="354"/>
      <point x="306" y="354" type="curve" smooth="yes"/>
      <point x="100" y="354" type="line" name="dv02"/>
      <point x="100" y="254" type="line" name="dv01"/>
      <point x="349" y="254" type="line" smooth="yes"/>
      <point x="505" y="254"/>
      <point x="599" y="342"/>
      <point x="599" y="479" type="curve" smooth="yes"/>
      <point x="599" y="617"/>
      <point x="504" y="700"/>
      <point x="348" y="700" type="curve" smooth="yes" name="at01"/>
      <point x="78" y="700" type="line"/>
    </contour>
    <contour>
      <point x="482" y="0" type="line" name="ab02"/>
      <point x="617" y="0" type="line"/>
      <point x="447" y="333" type="line"/>
      <point x="339" y="281" type="line"/>
    </contour>
  </outline>
</glyph>
<glyph name="W" format="2">
  <advance width="960"/>
  <unicode hex="0057"/>
  <anchor x="480" y="719" name="top"/>
  <anchor x="480" y="-20" name="bottom"/>
  <outline>
    <contour>
      <point x="218" y="0" type="line"/>
      <point x="317" y="0" type="line"/>
      <point x="142" y="700" type="line"/>
      <point x="17" y="700" type="line"/>
    </contour>
    <contour>
      <point x="257" y="0" type="line"/>
      <point x="351" y="0" type="line"/>
      <point x="515" y="700" type="line"/>
      <point x="432" y="700" type="line"/>
    </contour>
    <contour>
      <point x="610" y="0" type="line"/>
      <point x="704" y="0" type="line"/>
      <point x="529" y="700" type="line"/>
      <point x="446" y="700" type="line"/>
    </contour>
    <contour>
      <point x="644" y="0" type="line"/>
      <point x="743" y="0" type="line"/>
      <point x="944" y="700" type="line"/>
      <point x="819" y="700" type="line"/>
    </contour>
  </outline>
</glyph>
<glyph name="m" format="2">
  <advance width="943"/>
  <unicode hex="006D"/>
  <anchor x="472" y="520" name="top"/>
  <anchor x="472" y="-20" name="bottom"/>
  <outline>
    <contour>
      <point x="84" y="0" type="line" name="ab01"/>
      <point x="204" y="0" type="line" name="sh01"/>
      <point x="204" y="500" type="line" name="av01"/>
      <point x="84" y="500" type="line"/>
    </contour>
    <contour>
      <point x="414" y="0" type="line" name="ab01"/>
      <point x="534" y="0" type="line"/>
      <point x="534" y="314" type="line" smooth="yes"/>
      <point x="534" y="458"/>
      <point x="470" y="520"/>
      <point x="379" y="520" type="curve" smooth="yes" name="at01"/>
      <point x="283" y="520"/>
      <point x="209" y="452"/>
      <point x="196" y="355" type="curve"/>
      <point x="197" y="280" type="line"/>
      <point x="204" y="217" type="line" name="iv01"/>
      <point x="204" y="345.204"/>
      <point x="249" y="430"/>
      <point x="334" y="430" type="curve" smooth="yes" name="sv01"/>
      <point x="384" y="430"/>
      <point x="414" y="399.86"/>
      <point x="414" y="291.355" type="curve" smooth="yes"/>
    </contour>
    <contour>
      <point x="739" y="0" type="line" name="ab01"/>
      <point x="859" y="0" type="line"/>
      <point x="859" y="314" type="line" smooth="yes"/>
      <point x="859" y="458"/>
      <point x="795" y="520"/>
      <point x="704" y="520" type="curve" smooth="yes" name="at01"/>
      <point x="608" y="520"/>
      <point x="534" y="452"/>
      <point x="521" y="355" type="curve"/>
      <point x="523" y="280" type="line"/>
      <point x="534" y="217" type="line" name="iv01"/>
      <point x="534" y="345.204"/>
      <point x="578" y="430"/>
      <point x="661" y="430" type="curve" smooth="yes" name="sv01"/>
      <point x="710" y="430"/>
      <point x="739" y="399.86"/>
      <point x="739" y="291.355" type="curve" smooth="yes"/>
    </contour>
  </outline>
</glyph>
<glyph name="o" format="2">
  <advance width="616"/>
  <unicode hex="006F"/>
  <anchor x="413" y="-3" name="ogonek"/>
  <anchor x="308" y="520" name="top"/>
  <anchor x="308" y="-20" name="bottom"/>
  <anchor x="308" y="520" name="topgr"/>
  <outline>
    <contour>
      <point x="308" y="-20" type="curve" smooth="yes" name="dv01"/>
      <point x="476" y="-20"/>
      <point x="557" y="79"/>
      <point x="557" y="255" type="curve" smooth="yes"/>
      <point x="557" y="421"/>
      <point x="475" y="520"/>
      <point x="308" y="520" type="curve" smooth="yes" name="at01"/>
      <point x="152" y="520"/>
      <point x="59" y="421"/>
      <point x="59" y="255" type="curve" smooth="yes"/>
      <point x="59" y="79"/>
      <point x="153" y="-20"/>
    </contour>
    <contour>
      <point x="308" y="70" type="curve" smooth="yes" name="dv02"/>
      <point x="225" y="70"/>
      <point x="179" y="132.346"/>
      <point x="179" y="255.028" type="curve" smooth="yes"/>
      <point x="179" y="373.687"/>
      <point x="222" y="430"/>
      <point x="308" y="430" type="curve" smooth="yes" name="sv01"/>
      <point x="395" y="430"/>
      <point x="437" y="369.665"/>
      <point x="437" y="253.017" type="curve" smooth="yes"/>
      <point x="437" y="135.363"/>
      <point x="394" y="70"/>
    </contour>
  </outline>
</glyph>
<glyph name="s" format="2">
  <advance width="507"/>
  <unicode hex="0073"/>
  <anchor x="253" y="520" name="top"/>
  <anchor x="253" y="-20" name="bottom"/>
  <outline>
    <contour>
      <point x="46" y="70" type="line"/>
      <point x="86" y="20"/>
      <point x="156" y="-20"/>
      <point x="246" y="-20" type="curve" smooth="yes"/>
      <point x="360" y="-20"/>
      <point x="449" y="44.1425"/>
      <point x="449" y="141.359" type="curve" smooth="yes"/>
      <point x="449" y="207.506"/>
      <point x="407.879" y="247.173"/>
      <point x="288" y="281.67" type="curve" smooth="yes"/>
      <point x="205.878" y="305.303"/>
      <point x="176" y="327.773"/>
      <point x="176" y="367.862" type="curve" smooth="yes"/>
      <point x="176" y="404.944"/>
      <point x="201" y="430"/>
      <point x="245" y="430" type="curve" smooth="yes"/>
      <point x="292" y="430"/>
      <point x="340" y="401.582"/>
      <point x="368" y="362" type="curve"/>
      <point x="436" y="430" type="line"/>
      <point x="396" y="480"/>
      <point x="326" y="520"/>
      <point x="239" y="520" type="curve" smooth="yes"/>
      <point x="128" y="520"/>
      <point x="56" y="454.855"/>
      <point x="56" y="366.659" type="curve" smooth="yes"/>
      <point x="56" y="291.492"/>
      <point x="107.878" y="234.906"/>
      <point x="236" y="201.292" type="curve" smooth="yes"/>
      <point x="298.881" y="184.794"/>
      <point x="329" y="167.216"/>
      <point x="329" y="132.138" type="curve" smooth="yes"/>
      <point x="329" y="96.0579"/>
      <point x="297" y="70"/>
      <point x="244" y="70" type="curve" smooth="yes"/>
      <point x="190" y="70"/>
      <point x="142" y="98.4179"/>
      <point x="114" y="138" type="curve"/>
    </contour>
  </outline>
</glyph>
<glyph name="sterling" format="2">
  <advance width="634"/>
  <unicode hex="00A3"/>
  <outline>
    <contour>
      <point x="21" y="298" type="line"/>
      <point x="150.1" y="298" type="line"/>
      <point x="162.63" y="271.68"/>
      <point x="172" y="243.65"/>
      <point x="172" y="210" type="curve" smooth="yes"/>
      <point x="172" y="130"/>
      <point x="120" y="86"/>
      <point x="60" y="46" type="curve"/>
      <point x="50" y="-44" type="line"/>
      <point x="113" y="32"/>
      <point x="149" y="50"/>
      <point x="194" y="50" type="curve" smooth="yes"/>
      <point x="285" y="50"/>
      <point x="295" y="-26"/>
      <point x="414" y="-26" type="curve" smooth="yes"/>
      <point x="511" y="-26"/>
      <point x="581" y="24"/>
      <point x="606" y="104" type="curve"/>
      <point x="586" y="144" type="line"/>
      <point x="569" y="88"/>
      <point x="510" y="47"/>
      <point x="439" y="47" type="curve" smooth="yes"/>
      <point x="344" y="47"/>
      <point x="353" y="122"/>
      <point x="249" y="122" type="curve"/>
      <point x="264" y="143"/>
      <point x="282" y="173"/>
      <point x="282" y="222" type="curve" smooth="yes"/>
      <point x="282" y="249.91"/>
      <point x="276.14" y="274.77"/>
      <point x="267.39" y="298" type="curve"/>
      <point x="485" y="298" type="line"/>
      <point x="485" y="358" type="line"/>
      <point x="238.62" y="358" type="line"/>
      <point x="213.98" y="403.21"/>
      <point x="188" y="446.8"/>
      <point x="188" y="502" type="curve" smooth="yes"/>
      <point x="188" y="580"/>
      <point x="240" y="619"/>
      <point x="313" y="619" type="curve" smooth="yes"/>
      <point x="377" y="619"/>
      <point x="432" y="589"/>
      <point x="493" y="527" type="curve"/>
      <point x="565" y="599" type="line"/>
      <point x="499" y="680"/>
      <point x="412" y="720"/>
      <point x="311" y="720" type="curve" smooth="yes"/>
      <point x="166" y="720"/>
      <point x="67" y="637"/>
      <point x="67" y="520" type="curve" smooth="yes"/>
      <point x="67" y="465.56"/>
      <point x="88.14" y="413.77"/>
      <point x="118.02" y="358" type="curve"/>
      <point x="21" y="358" type="line"/>
    </contour>
  </outline>
</glyph>
<glyph name="section" format="2">
  <advance width="590"/>
  <unicode hex="00A7"/>
  <outline>
    <contour>
      <point x="448" y="48" type="line"/>
      <point x="519.688" y="83"/>
      <point x="561" y="140"/>
      <point x="561" y="213" type="curve" smooth="yes"/>
      <point x="561" y="319"/>
      <point x="489.008" y="377.033"/>
      <point x="334" y="409" type="curve" smooth="yes"/>
      <point x="232.008" y="430.033"/>
      <point x="178" y="460"/>
      <point x="178" y="518" type="curve" smooth="yes"/>
      <point x="178" y="574"/>
      <point x="225.699" y="619"/>
      <point x="300.521" y="619" type="curve" smooth="yes"/>
      <point x="365.055" y="619"/>
      <point x="419.301" y="586"/>
      <point x="467" y="528" type="curve"/>
      <point x="538" y="599" type="line"/>
      <point x="476.56" y="679"/>
      <point x="393.04" y="720"/>
      <point x="290.32" y="720" type="curve" smooth="yes"/>
      <point x="147.28" y="720"/>
      <point x="58" y="640"/>
      <point x="58" y="520" type="curve" smooth="yes"/>
      <point x="58" y="415"/>
      <point x="129.031" y="352.141"/>
      <point x="301" y="318" type="curve" smooth="yes"/>
      <point x="401.031" y="298.141"/>
      <point x="444" y="273"/>
      <point x="444" y="219" type="curve" smooth="yes"/>
      <point x="444" y="184"/>
      <point x="418.5" y="155"/>
      <point x="376" y="135" type="curve"/>
    </contour>
    <contour>
      <point x="41" y="-99" type="line"/>
      <point x="103.72" y="-179"/>
      <point x="188.98" y="-220"/>
      <point x="293.84" y="-220" type="curve" smooth="yes"/>
      <point x="439.86" y="-220"/>
      <point x="531" y="-140"/>
      <point x="531" y="-20" type="curve" smooth="yes"/>
      <point x="531" y="85"/>
      <point x="461.811" y="147.859"/>
      <point x="294.295" y="182" type="curve" smooth="yes"/>
      <point x="196.857" y="201.859"/>
      <point x="155" y="227"/>
      <point x="155" y="281" type="curve" smooth="yes"/>
      <point x="155" y="316"/>
      <point x="173" y="345"/>
      <point x="203" y="365" type="curve"/>
      <point x="131" y="452" type="line"/>
      <point x="72" y="417"/>
      <point x="38" y="360"/>
      <point x="38" y="287" type="curve" smooth="yes"/>
      <point x="38" y="181"/>
      <point x="108.113" y="122.966"/>
      <point x="259.073" y="91" type="curve" smooth="yes"/>
      <point x="358.403" y="69.9665"/>
      <point x="411" y="40"/>
      <point x="411" y="-18" type="curve" smooth="yes"/>
      <point x="411" y="-74"/>
      <point x="361.65" y="-119"/>
      <point x="284.239" y="-119" type="curve" smooth="yes"/>
      <point x="217.472" y="-119"/>
      <point x="161.35" y="-86"/>
      <point x="112" y="-28" type="curve"/>
    </contour>
  </outline>
</glyph>
<glyph name="aogonek" format="2">
  <advance width="645"/>
  <unicode hex="0105"/>
  <anchor x="323" y="520" name="top"/>
  <anchor x="323" y="-20" name="bottom"/>
  <outline>
    <contour>
      <point x="442" y="0" type="line" name="ab01"/>
      <point x="562" y="0" type="line"/>
      <point x="562" y="500" type="line" name="av01"/>
      <point x="442" y="500" type="line"/>
    </contour>
    <contour>
      <point x="273" y="-20" type="curve" smooth="yes" name="dv01"/>
      <point x="397" y="-20"/>
      <point x="464" y="78"/>
      <point x="464" y="248" type="curve" smooth="yes"/>
      <point x="464" y="422"/>
      <point x="394" y="520"/>
      <point x="264" y="520" type="curve" smooth="yes" name="at01"/>
      <point x="127" y="520"/>
      <point x="50" y="411"/>
      <point x="50" y="259" type="curve" smooth="yes"/>
      <point x="50" y="99"/>
      <point x="136" y="-20"/>
    </contour>
    <contour>
      <point x="301" y="70" type="curve" smooth="yes" name="dv02"/>
      <point x="221" y="70"/>
      <point x="170" y="143.203"/>
      <point x="170" y="256.518" type="curve" smooth="yes"/>
      <point x="170" y="365.822"/>
      <point x="218" y="430"/>
      <point x="298" y="430" type="curve" smooth="yes" name="sv01"/>
      <point x="383" y="430"/>
      <point x="442" y="357.799"/>
      <point x="442" y="253.51" type="curve" smooth="yes"/>
      <point x="442" y="151.226"/>
      <point x="385" y="70"/>
    </contour>
    <contour>
      <point x="563" y="-182" type="line"/>
      <point x="519" y="-168"/>
      <point x="497" y="-137"/>
      <point x="497" y="-103" type="curve" smooth="yes"/>
      <point x="497" y="-66"/>
      <point x="522" y="-24"/>
      <point x="562" y="0" type="curve"/>
      <point x="539" y="3" type="line"/>
      <point x="456" y="-13"/>
      <point x="404" y="-55"/>
      <point x="404" y="-109" type="curve" smooth="yes"/>
      <point x="404" y="-158"/>
      <point x="448" y="-195"/>
      <point x="516" y="-205" type="curve"/>
    </contour>
  </outline>
</glyph>
<glyph name="oe" format="2">
  <advance width="957"/>
  <unicode hex="0153"/>
  <anchor x="479" y="520" name="top"/>
  <anchor x="479" y="-20" name="bottom"/>
  <outline>
    <contour>
      <point x="298.68" y="-20" type="curve" smooth="yes" name="dv01"/>
      <point x="459.96" y="-20"/>
      <point x="537.72" y="79"/>
      <point x="537.72" y="255" type="curve" smooth="yes"/>
      <point x="537.72" y="421"/>
      <point x="459" y="520"/>
      <point x="298.68" y="520" type="curve" smooth="yes" name="at01"/>
      <point x="148.92" y="520"/>
      <point x="59.64" y="421"/>
      <point x="59.64" y="255" type="curve" smooth="yes"/>
      <point x="59.64" y="79"/>
      <point x="149.88" y="-20"/>
    </contour>
    <contour>
      <point x="298.68" y="70" type="curve" smooth="yes" name="dv02"/>
      <point x="219" y="70"/>
      <point x="174.84" y="132.346"/>
      <point x="174.84" y="255.028" type="curve" smooth="yes"/>
      <point x="174.84" y="373.687"/>
      <point x="216.12" y="430"/>
      <point x="298.68" y="430" type="curve" smooth="yes" name="sv01"/>
      <point x="382.2" y="430"/>
      <point x="422.52" y="369.665"/>
      <point x="422.52" y="253.017" type="curve" smooth="yes"/>
      <point x="422.52" y="135.363"/>
      <point x="381.24" y="70"/>
    </contour>
    <contour>
      <point x="542.84" y="307" type="line" name="sv02"/>
      <point x="551.57" y="385.639"/>
      <point x="601.241" y="430"/>
      <point x="670.391" y="430" type="curve" smooth="yes" name="sv01"/>
      <point x="738.567" y="430"/>
      <point x="782.395" y="385.639"/>
      <point x="791.16" y="307" type="curve" name="dv04"/>
    </contour>
    <contour>
      <point x="821.23" y="138" type="line"/>
      <point x="791.056" y="94.3582"/>
      <point x="728.762" y="70"/>
      <point x="670.362" y="70" type="curve" smooth="yes" name="dv02"/>
      <point x="582.761" y="70"/>
      <point x="538.96" y="125.353"/>
      <point x="538.96" y="227" type="curve" name="sv04"/>
      <point x="910.47" y="227" type="line" name="dv03"/>
      <point x="910.47" y="424"/>
      <point x="824.14" y="520"/>
      <point x="671.85" y="520" type="curve" smooth="yes" name="at01"/>
      <point x="522.47" y="520"/>
      <point x="422.56" y="427"/>
      <point x="422.56" y="251" type="curve" smooth="yes" name="sv03"/>
      <point x="422.56" y="72"/>
      <point x="525.38" y="-20"/>
      <point x="676.7" y="-20" type="curve" smooth="yes" name="dv01"/>
      <point x="772.73" y="-20"/>
      <point x="846.45" y="17"/>
      <point x="887.19" y="70" type="curve"/>
    </contour>
  </outline>
</glyph>
<glyph name="scedilla" format="2">
  <advance width="507"/>
  <unicode hex="015F"/>
  <anchor x="253" y="520" name="top"/>
  <anchor x="233" y="-218" name="bottom"/>
  <outline>
    <contour>
      <point x="46" y="70" type="line"/>
      <point x="86" y="20"/>
      <point x="156" y="-20"/>
      <point x="246" y="-20" type="curve" smooth="yes"/>
      <point x="360" y="-20"/>
      <point x="449" y="44.1425"/>
      <point x="449" y="141.359" type="curve" smooth="yes"/>
      <point x="449" y="207.506"/>
      <point x="407.879" y="247.173"/>
      <point x="288" y="281.67" type="curve" smooth="yes"/>
      <point x="205.878" y="305.303"/>
      <point x="176" y="327.773"/>
      <point x="176" y="367.862" type="curve" smooth="yes"/>
      <point x="176" y="404.944"/>
      <point x="201" y="430"/>
      <point x="245" y="430" type="curve" smooth="yes"/>
      <point x="292" y="430"/>
      <point x="340" y="401.582"/>
      <point x="368" y="362" type="curve"/>
      <point x="436" y="430" type="line"/>
      <point x="396" y="480"/>
      <point x="326" y="520"/>
      <point x="239" y="520" type="curve" smooth="yes"/>
      <point x="128" y="520"/>
      <point x="56" y="454.855"/>
      <point x="56" y="366.659" type="curve" smooth="yes"/>
      <point x="56" y="291.492"/>
      <point x="107.878" y="234.906"/>
      <point x="236" y="201.292" type="curve" smooth="yes"/>
      <point x="298.881" y="184.794"/>
      <point x="329" y="167.216"/>
      <point x="329" y="132.138" type="curve" smooth="yes"/>
      <point x="329" y="96.0579"/>
      <point x="297" y="70"/>
      <point x="244" y="70" type="curve" smooth="yes"/>
      <point x="190" y="70"/>
      <point x="142" y="98.4179"/>
      <point x="114" y="138" type="curve"/>
    </contour>
    <contour>
      <point x="126" y="-205" type="line"/>
      <point x="152" y="-211"/>
      <point x="181" y="-218"/>
      <point x="222" y="-218" type="curve" smooth="yes"/>
      <point x="305" y="-218"/>
      <point x="352" y="-189"/>
      <point x="352" y="-136" type="curve" smooth="yes"/>
      <point x="352" y="-89"/>
      <point x="316" y="-64"/>
      <point x="256" y="-64" type="curve"/>
      <point x="298.784" y="13.5458" type="line"/>
      <point x="225.784" y="13.5458" type="line"/>
      <point x="173" y="-90" type="line"/>
      <point x="188" y="-88"/>
      <point x="199" y="-86"/>
      <point x="212" y="-86" type="curve" smooth="yes"/>
      <point x="247" y="-86"/>
      <point x="268" y="-101"/>
      <point x="268" y="-130" type="curve" smooth="yes"/>
      <point x="268" y="-158"/>
      <point x="248" y="-177"/>
      <point x="212" y="-177" type="curve" smooth="yes"/>
      <point x="194" y="-177"/>
      <point x="166" y="-172"/>
      <point x="145" y="-166" type="curve"/>
    </contour>
  </outline>
</glyph>
<glyph name="schwa" format="2">
  <advance width="613"/>
  <unicode hex="0259"/>
  <anchor x="306" y="520" name="top"/>
  <anchor x="306" y="-20" name="bottom"/>
  <outline>
    <contour>
      <point x="171" y="214" type="line" name="dv03"/>
      <point x="179" y="122"/>
      <point x="226" y="70"/>
      <point x="303" y="70" type="curve" smooth="yes" name="dv02"/>
      <point x="379" y="70"/>
      <point x="425" y="120.35"/>
      <point x="433" y="214" type="curve" name="ah01"/>
    </contour>
    <contour>
      <point x="85" y="430" type="line"/>
      <point x="127" y="483"/>
      <point x="203" y="520"/>
      <point x="301" y="520" type="curve" smooth="yes"/>
      <point x="460" y="520"/>
      <point x="554" y="421"/>
      <point x="554" y="256" type="curve" smooth="yes" name="sh02"/>
      <point x="554" y="89"/>
      <point x="458" y="-20"/>
      <point x="301" y="-20" type="curve" smooth="yes" name="dv01"/>
      <point x="147" y="-20"/>
      <point x="50" y="84"/>
      <point x="50" y="253" type="curve" smooth="yes" name="sh01"/>
      <point x="50" y="270"/>
      <point x="51" y="279"/>
      <point x="53" y="294" type="curve" name="dv04"/>
      <point x="431" y="294" type="line" name="sh03"/>
      <point x="428.211" y="374.593"/>
      <point x="378" y="430"/>
      <point x="298" y="430" type="curve" smooth="yes"/>
      <point x="247" y="430"/>
      <point x="186.422" y="406.657"/>
      <point x="153" y="362" type="curve"/>
    </contour>
  </outline>
</glyph>
<glyph name="ogonekcomb" format="2">
  <advance width="209"/>
  <unicode hex="0328"/>
  <anchor x="189" y="0" name="_ogonek"/>
  <outline>
    <contour>
      <point x="196" y="-180" type="line"/>
      <point x="152" y="-166"/>
      <point x="130" y="-135"/>
      <point x="130" y="-101" type="curve" smooth="yes"/>
      <point x="130" y="-64"/>
      <point x="155" y="-22"/>
      <point x="195" y="2" type="curve"/>
      <point x="172" y="5" type="line"/>
      <point x="89" y="-11"/>
      <point x="37" y="-53"/>
      <point x="37" y="-107" type="curve" smooth="yes"/>
      <point x="37" y="-156"/>
      <point x="81" y="-193"/>
      <point x="149" y="-203" type="curve"/>
    </contour>
  </outline>
</glyph>
<glyph name="theta" format="2">
  <advance width="644"/>
  <unicode hex="03B8"/>
  <anchor x="322" y="721" name="topgr"/>
  <outline>
    <contour>
      <point x="323.996" y="-20" type="curve" smooth="yes"/>
      <point x="493.673" y="-20"/>
      <point x="584.5" y="109"/>
      <point x="584.5" y="348" type="curve" smooth="yes"/>
      <point x="584.5" y="586"/>
      <point x="490.679" y="720"/>
      <point x="323.996" y="720" type="curve" smooth="yes"/>
      <point x="155.318" y="720"/>
      <point x="59.5" y="585"/>
      <point x="59.5" y="348" type="curve" smooth="yes"/>
      <point x="59.5" y="110"/>
      <point x="152.323" y="-20"/>
    </contour>
    <contour>
      <point x="324.007" y="70" type="curve" smooth="yes"/>
      <point x="224.658" y="70"/>
      <point x="179.5" y="155"/>
      <point x="179.5" y="346" type="curve" smooth="yes"/>
      <point x="179.5" y="546"/>
      <point x="220.644" y="630"/>
      <point x="324.007" y="630" type="curve" smooth="yes"/>
      <point x="424.359" y="630"/>
      <point x="464.5" y="547"/>
      <point x="464.5" y="346" type="curve" smooth="yes"/>
      <point x="464.5" y="149"/>
      <point x="425.363" y="70"/>
    </contour>
    <contour>
      <point x="176" y="310" type="line"/>
      <point x="468" y="310" type="line"/>
      <point x="468" y="390" type="line"/>
      <point x="176" y="390" type="line"/>
    </contour>
  </outline>
</glyph>
<glyph name="chi" format="2">
  <advance width="646"/>
  <unicode hex="03C7"/>
  <anchor x="323" y="520" name="topgr"/>
  <outline>
    <contour>
      <point x="592" y="-129" type="line"/>
      <point x="469.464" y="-129"/>
      <point x="412.628" y="-54.0541"/>
      <point x="362.445" y="173.7" type="curve" smooth="yes"/>
      <point x="305.655" y="431.441"/>
      <point x="231.635" y="520"/>
      <point x="73" y="520" type="curve"/>
      <point x="73" y="430" type="line"/>
      <point x="174.605" y="430"/>
      <point x="220.989" y="364.111"/>
      <point x="267.699" y="153.425" type="curve" smooth="yes"/>
      <point x="328.041" y="-118.745"/>
      <point x="415.341" y="-219"/>
      <point x="592" y="-219" type="curve"/>
    </contour>
    <contour>
      <point x="51" y="-200" type="line" name="ab01"/>
      <point x="179" y="-200" type="line"/>
      <point x="593" y="500" type="line" name="at01"/>
      <point x="465" y="500" type="line"/>
    </contour>
  </outline>
</glyph>
<glyph name="Djecyr" format="2">
  <advance width="770"/>
  <unicode hex="0402"/>
  <outline>
    <contour>
      <point x="195" y="0" type="line"/>
      <point x="195" y="600" type="line"/>
      <point x="31" y="600" type="line"/>
      <point x="31" y="700" type="line"/>
      <point x="564" y="700" type="line"/>
      <point x="564" y="600" type="line"/>
      <point x="315" y="600" type="line"/>
      <point x="315" y="352" type="line"/>
      <point x="350" y="424"/>
      <point x="414" y="466"/>
      <point x="502" y="466" type="curve" smooth="yes"/>
      <point x="628" y="466"/>
      <point x="711" y="379"/>
      <point x="711" y="224" type="curve" smooth="yes"/>
      <point x="711" y="78"/>
      <point x="637" y="-21"/>
      <point x="509" y="-21" type="curve" smooth="yes" name="dv01"/>
      <point x="471" y="-21"/>
      <point x="458" y="-12"/>
      <point x="413" y="2" type="curve"/>
      <point x="438" y="94" type="line"/>
      <point x="459" y="84.3571"/>
      <point x="488" y="79"/>
      <point x="505" y="79" type="curve" smooth="yes" name="dv02"/>
      <point x="558" y="79"/>
      <point x="591" y="131.176"/>
      <point x="591" y="226.497" type="curve" smooth="yes"/>
      <point x="591" y="326.834"/>
      <point x="554" y="376"/>
      <point x="479" y="376" type="curve" smooth="yes"/>
      <point x="391" y="376"/>
      <point x="315" y="307"/>
      <point x="315" y="210" type="curve" smooth="yes"/>
      <point x="315" y="0" type="line"/>
    </contour>
  </outline>
</glyph>
<glyph name="Njecyr" format="2">
  <advance width="990"/>
  <unicode hex="040A"/>
  <outline>
    <contour>
      <point x="88" y="0" type="line" name="ab01"/>
      <point x="208" y="0" type="line"/>
      <point x="208" y="335" type="line" name="dv01"/>
      <point x="498" y="335" type="line"/>
      <point x="498" y="0" type="line" name="ab02"/>
      <point x="618" y="0" type="line"/>
      <point x="618" y="700" type="line" name="at01"/>
      <point x="498" y="700" type="line"/>
      <point x="498" y="435" type="line"/>
      <point x="208" y="435" type="line" name="dv02"/>
      <point x="208" y="700" type="line" name="at02"/>
      <point x="88" y="700" type="line"/>
    </contour>
    <contour>
      <point x="505" y="0" type="line"/>
      <point x="698" y="0" type="line" smooth="yes"/>
      <point x="881" y="0"/>
      <point x="941" y="89.175"/>
      <point x="941" y="216.413" type="curve" smooth="yes"/>
      <point x="941" y="342.562"/>
      <point x="881" y="435"/>
      <point x="698" y="435" type="curve" smooth="yes"/>
      <point x="525" y="435" type="line"/>
      <point x="540" y="335" type="line"/>
      <point x="660" y="335" type="line" smooth="yes"/>
      <point x="774" y="335"/>
      <point x="821" y="299.75"/>
      <point x="821" y="217.5" type="curve" smooth="yes"/>
      <point x="821" y="134.075"/>
      <point x="774" y="100"/>
      <point x="658" y="100" type="curve" smooth="yes"/>
      <point x="614" y="100" type="line"/>
    </contour>
  </outline>
</glyph>
<glyph name="Hardcyr" format="2">
  <advance width="735"/>
  <unicode hex="042A"/>
  <outline>
    <contour>
      <point x="31" y="600" type="line"/>
      <point x="204" y="600" type="line"/>
      <point x="237" y="693" type="line"/>
      <point x="237" y="700" type="line"/>
      <point x="31" y="700" type="line"/>
    </contour>
    <contour>
      <point x="189" y="0" type="line"/>
      <point x="445" y="0" type="line" smooth="yes"/>
      <point x="592" y="0"/>
      <point x="686" y="85"/>
      <point x="686" y="217" type="curve" smooth="yes"/>
      <point x="686" y="349"/>
      <point x="592" y="429"/>
      <point x="445" y="429" type="curve" smooth="yes"/>
      <point x="309" y="429" type="line"/>
      <point x="309" y="700" type="line"/>
      <point x="189" y="700" type="line"/>
    </contour>
    <contour>
      <point x="309" y="100" type="line"/>
      <point x="309" y="329" type="line"/>
      <point x="443" y="329" type="line" smooth="yes"/>
      <point x="533" y="329"/>
      <point x="566" y="289"/>
      <point x="566" y="217" type="curve" smooth="yes"/>
      <point x="566" y="145"/>
      <point x="533" y="100"/>
      <point x="443" y="100" type="curve" smooth="yes"/>
    </contour>
  </outline>
</glyph>
<glyph name="tsecyr" format="2">
  <advance width="686"/>
  <unicode hex="0446"/>
  <outline>
    <contour>
      <point x="80" y="0" type="line"/>
      <point x="521" y="0" type="line" smooth="yes"/>
      <point x="588" y="0"/>
      <point x="574" y="-72"/>
      <point x="574" y="-140" type="curve"/>
      <point x="660" y="-140" type="line"/>
      <point x="660" y="52"/>
      <point x="639" y="88"/>
      <point x="539" y="88" type="curve"/>
      <point x="539" y="500" type="line"/>
      <point x="419" y="500" type="line"/>
      <point x="419" y="90" type="line"/>
      <point x="200" y="90" type="line"/>
      <point x="200" y="500" type="line"/>
      <point x="80" y="500" type="line"/>
    </contour>
  </outline>
</glyph>
<glyph name="shchacyr" format="2">
  <advance width="954"/>
  <unicode hex="0449"/>
  <outline>
    <contour>
      <point x="80" y="0" type="line"/>
      <point x="782" y="0" type="line" smooth="yes"/>
      <point x="850" y="0"/>
      <point x="835" y="-102"/>
      <point x="835" y="-140" type="curve"/>
      <point x="920" y="-140" type="line"/>
      <point x="920" y="52"/>
      <point x="899" y="89"/>
      <point x="799" y="89" type="curve"/>
      <point x="799" y="500" type="line"/>
      <point x="679" y="500" type="line"/>
      <point x="679" y="90" type="line"/>
      <point x="500" y="90" type="line"/>
      <point x="500" y="500" type="line"/>
      <point x="380" y="500" type="line"/>
      <point x="380" y="90" type="line"/>
      <point x="200" y="90" type="line"/>
      <point x="200" y="500" type="line"/>
      <point x="80" y="500" type="line"/>
    </contour>
  </outline>
</glyph>
<glyph name="hardcyr" format="2">
  <advance width="600"/>
  <unicode hex="044A"/>
  <outline>
    <contour>
      <point x="21" y="410" type="line"/>
      <point x="179" y="410" type="line"/>
      <point x="212" y="496" type="line"/>
      <point x="212" y="500" type="line"/>
      <point x="21" y="500" type="line"/>
    </contour>
    <contour>
      <point x="144" y="0" type="line"/>
      <point x="364" y="0" type="line" smooth="yes"/>
      <point x="479" y="0"/>
      <point x="550" y="65"/>
      <point x="550" y="167" type="curve" smooth="yes"/>
      <point x="550" y="266"/>
      <point x="479" y="325"/>
      <point x="361" y="325" type="curve" smooth="yes"/>
      <point x="179" y="325" type="line"/>
      <point x="179" y="235" type="line"/>
      <point x="346" y="235" type="line" smooth="yes"/>
      <point x="405" y="235"/>
      <point x="430" y="207.812"/>
      <point x="430" y="162.5" type="curve" smooth="yes"/>
      <point x="430" y="117.188"/>
      <point x="404" y="90"/>
      <point x="345" y="90" type="curve" smooth="yes"/>
      <point x="264" y="90" type="line"/>
      <point x="264" y="500" type="line"/>
      <point x="144" y="500" type="line"/>
    </contour>
  </outline>
</glyph>
<glyph name="yucyr" format="2">
  <advance width="877"/>
  <unicode hex="044E"/>
  <anchor x="438" y="-20" name="bottom"/>
  <anchor x="438" y="520" name="top"/>
  <outline>
    <contour>
      <point x="180" y="210" type="line"/>
      <point x="356" y="210" type="line"/>
      <point x="356" y="300" type="line"/>
      <point x="180" y="300" type="line"/>
    </contour>
    <contour>
      <point x="559" y="-20" type="curve" smooth="yes" name="dv01"/>
      <point x="727" y="-20"/>
      <point x="808" y="79"/>
      <point x="808" y="255" type="curve" smooth="yes"/>
      <point x="808" y="421"/>
      <point x="726" y="520"/>
      <point x="559" y="520" type="curve" smooth="yes" name="at01"/>
      <point x="403" y="520"/>
      <point x="310" y="421"/>
      <point x="310" y="255" type="curve" smooth="yes"/>
      <point x="310" y="79"/>
      <point x="404" y="-20"/>
    </contour>
    <contour>
      <point x="559" y="70" type="curve" smooth="yes" name="dv02"/>
      <point x="476" y="70"/>
      <point x="430" y="132.346"/>
      <point x="430" y="255.028" type="curve" smooth="yes"/>
      <point x="430" y="373.687"/>
      <point x="473" y="430"/>
      <point x="559" y="430" type="curve" smooth="yes" name="sv01"/>
      <point x="646" y="430"/>
      <point x="688" y="369.665"/>
      <point x="688" y="253.017" type="curve" smooth="yes"/>
      <point x="688" y="135.363"/>
      <point x="645" y="70"/>
    </contour>
    <contour>
      <point x="90" y="0" type="line"/>
      <point x="210" y="0" type="line"/>
      <point x="210" y="500" type="line"/>
      <point x="90" y="500" type="line"/>
    </contour>
  </outline>
</glyph>
<glyph name="njecyr" format="2">
  <advance width="830"/>
  <unicode hex="045A"/>
  <outline>
    <contour>
      <point x="80" y="0" type="line"/>
      <point x="200" y="0" type="line"/>
      <point x="200" y="215" type="line"/>
      <point x="387" y="215" type="line"/>
      <point x="387" y="0" type="line"/>
      <point x="507" y="0" type="line"/>
      <point x="507" y="500" type="line"/>
      <point x="387" y="500" type="line"/>
      <point x="387" y="305" type="line"/>
      <point x="200" y="305" type="line"/>
      <point x="200" y="500" type="line"/>
      <point x="80" y="500" type="line"/>
    </contour>
    <contour>
      <point x="395" y="0" type="line"/>
      <point x="602" y="0" type="line" smooth="yes"/>
      <point x="714" y="0"/>
      <point x="780" y="59.9661"/>
      <point x="780" y="159.22" type="curve" smooth="yes"/>
      <point x="780" y="254.339"/>
      <point x="719" y="305"/>
      <point x="602" y="305" type="curve" smooth="yes"/>
      <point x="461" y="305" type="line"/>
      <point x="461" y="215" type="line"/>
      <point x="598" y="215" type="line" smooth="yes"/>
      <point x="639" y="215"/>
      <point x="660" y="194.348"/>
      <point x="660" y="155.217" type="curve" smooth="yes"/>
      <point x="660" y="113.913"/>
      <point x="631" y="90"/>
      <point x="583" y="90" type="curve" smooth="yes"/>
      <point x="505" y="90" type="line"/>
      <point x="505" y="500" type="line"/>
      <point x="395" y="500" type="line"/>
    </contour>
  </outline>
</glyph>
<glyph name="emdash" format="2">
  <advance width="914"/>
  <unicode hex="2014"/>
  <outline>
    <contour>
      <point x="50" y="262" type="line"/>
      <point x="864" y="262" type="line"/>
      <point x="864" y="296" type="line"/>
      <point x="50" y="296" type="line"/>
    </contour>
  </outline>
</glyph>
<glyph name="bullet" format="2">
  <advance width="471"/>
  <unicode hex="2022"/>
  <outline>
    <contour>
      <point x="234" y="218" type="curve" smooth="yes"/>
      <point x="289" y="218"/>
      <point x="335" y="262"/>
      <point x="335" y="318" type="curve" smooth="yes"/>
      <point x="335" y="373"/>
      <point x="289" y="419"/>
      <point x="234" y="419" type="curve" smooth="yes"/>
      <point x="180" y="419"/>
      <point x="134" y="373"/>
      <point x="134" y="318" type="curve" smooth="yes"/>
      <point x="134" y="262"/>
      <point x="180" y="218"/>
    </contour>
  </outline>
</glyph>
<glyph name="C.ss09" format="2">
  <advance width="773"/>
  <anchor x="407" y="-19" name="bottom"/>
  <anchor x="387" y="719" name="top"/>
  <outline>
    <contour>
      <point x="600" y="261" type="line"/>
      <point x="590" y="152"/>
      <point x="507" y="80"/>
      <point x="397" y="80" type="curve" smooth="yes"/>
      <point x="260" y="80"/>
      <point x="173" y="192"/>
      <point x="173" y="354" type="curve" smooth="yes"/>
      <point x="173" y="511"/>
      <point x="254" y="620"/>
      <point x="392" y="620" type="curve" smooth="yes"/>
      <point x="484" y="620"/>
      <point x="561" y="571"/>
      <point x="590" y="485" type="curve"/>
      <point x="710" y="485" type="line"/>
      <point x="663" y="637"/>
      <point x="557" y="720"/>
      <point x="401" y="720" type="curve" smooth="yes"/>
      <point x="190" y="720"/>
      <point x="53" y="568"/>
      <point x="53" y="355" type="curve" smooth="yes"/>
      <point x="53" y="142"/>
      <point x="190" y="-20"/>
      <point x="399" y="-20" type="curve" smooth="yes"/>
      <point x="566" y="-20"/>
      <point x="683" y="84"/>
      <point x="720" y="261" type="curve"/>
    </contour>
  </outline>
</glyph>
<glyph name="Ccedilla.ss12" format="2">
  <advance width="669"/>
  <anchor x="357" y="719" name="top"/>
  <anchor x="357" y="-217" name="bottom"/>
  <outline>
    <contour>
      <point x="607.705" y="170.742" type="line"/>
      <point x="531.978" y="110.376"/>
      <point x="459.458" y="78.9326"/>
      <point x="378" y="78.9326" type="curve" smooth="yes"/>
      <point x="229" y="78.9326"/>
      <point x="173" y="182.328"/>
      <point x="173" y="345.953" type="curve" smooth="yes"/>
      <point x="173" y="513.594"/>
      <point x="223.684" y="619.699"/>
      <point x="372.684" y="619.699" type="curve" smooth="yes"/>
      <point x="454.142" y="619.699"/>
      <point x="531.978" y="587.855"/>
      <point x="607.705" y="528.19" type="curve"/>
      <point x="615.812" y="611.727" type="line"/>
      <point x="580.285" y="665.201"/>
      <point x="483.983" y="720"/>
      <point x="369" y="720" type="curve" smooth="yes"/>
      <point x="169" y="720"/>
      <point x="53" y="572"/>
      <point x="53" y="349" type="curve" smooth="yes"/>
      <point x="53" y="126"/>
      <point x="169" y="-21.0674"/>
      <point x="369" y="-21.0674" type="curve" smooth="yes"/>
      <point x="483.983" y="-21.0674"/>
      <point x="580.285" y="33.7312"/>
      <point x="615.812" y="87.2056" type="curve"/>
    </contour>
    <contour>
      <point x="250" y="-204" type="line"/>
      <point x="276" y="-210"/>
      <point x="305" y="-217"/>
      <point x="346" y="-217" type="curve" smooth="yes"/>
      <point x="429" y="-217"/>
      <point x="476" y="-188"/>
      <point x="476" y="-135" type="curve" smooth="yes"/>
      <point x="476" y="-88"/>
      <point x="440" y="-63"/>
      <point x="380" y="-63" type="curve"/>
      <point x="422.784" y="14.5458" type="line"/>
      <point x="349.784" y="14.5458" type="line"/>
      <point x="297" y="-89" type="line"/>
      <point x="312" y="-87"/>
      <point x="323" y="-85"/>
      <point x="336" y="-85" type="curve" smooth="yes"/>
      <point x="371" y="-85"/>
      <point x="392" y="-100"/>
      <point x="392" y="-129" type="curve" smooth="yes"/>
      <point x="392" y="-157"/>
      <point x="372" y="-176"/>
      <point x="336" y="-176" type="curve" smooth="yes"/>
      <point x="318" y="-176"/>
      <point x="290" y="-171"/>
      <point x="269" y="-165" type="curve"/>
    </contour>
  </outline>
</glyph>
<glyph name="Efcyr.loclBGR" format="2">
  <advance width="836"/>
  <outline>
    <contour>
      <point x="358" y="-80" type="line"/>
      <point x="478" y="-80" type="line"/>
      <point x="478" y="0" type="line"/>
      <point x="661" y="0"/>
      <point x="783" y="141.443"/>
      <point x="783" y="353.608" type="curve" smooth="yes"/>
      <point x="783" y="561.443"/>
      <point x="661" y="700"/>
      <point x="478" y="700" type="curve"/>
      <point x="478" y="780" type="line"/>
      <point x="358" y="780" type="line"/>
      <point x="358" y="700" type="line"/>
      <point x="175" y="700"/>
      <point x="53" y="561.443"/>
      <point x="53" y="353.608" type="curve" smooth="yes"/>
      <point x="53" y="141.443"/>
      <point x="175" y="0"/>
      <point x="358" y="0" type="curve"/>
    </contour>
    <contour>
      <point x="478" y="600" type="line"/>
      <point x="589" y="600"/>
      <point x="663" y="501.047"/>
      <point x="663" y="352.618" type="curve" smooth="yes"/>
      <point x="663" y="201.047"/>
      <point x="589" y="100"/>
      <point x="478" y="100" type="curve"/>
    </contour>
    <contour>
      <point x="358" y="100" type="line"/>
      <point x="247" y="100"/>
      <point x="173" y="202.618"/>
      <point x="173" y="356.544" type="curve" smooth="yes"/>
      <point x="173" y="502.618"/>
      <point x="247" y="600"/>
      <point x="358" y="600" type="curve"/>
    </contour>
  </outline>
</glyph>
<glyph name="G.ss03" format="2">
  <advance width="773"/>
  <anchor x="398" y="-19" name="bottom"/>
  <anchor x="387" y="719" name="top"/>
  <outline>
    <contour>
      <point x="380" y="280" type="line" name="dv05"/>
      <point x="380" y="375" type="line" name="dv06"/>
      <point x="720" y="375" type="line" name="sv01"/>
      <point x="720" y="321" type="line" smooth="yes" name="sv03"/>
      <point x="720" y="119"/>
      <point x="594" y="-20"/>
      <point x="396" y="-20" type="curve" smooth="yes" name="dv03"/>
      <point x="195" y="-20"/>
      <point x="53" y="132"/>
      <point x="53" y="348" type="curve" smooth="yes" name="dv08"/>
      <point x="53" y="561"/>
      <point x="178" y="720"/>
      <point x="390" y="720" type="curve" smooth="yes"/>
      <point x="509" y="720"/>
      <point x="604" y="677"/>
      <point x="673" y="593" type="curve"/>
      <point x="634" y="465" type="line"/>
      <point x="560" y="579.74"/>
      <point x="498" y="620"/>
      <point x="392" y="620" type="curve" smooth="yes"/>
      <point x="259" y="620"/>
      <point x="173" y="518.625"/>
      <point x="173" y="351.004" type="curve" smooth="yes" name="dv07"/>
      <point x="173" y="176.357"/>
      <point x="272" y="80"/>
      <point x="398" y="80" type="curve" smooth="yes" name="dv04"/>
      <point x="516" y="80"/>
      <point x="597" y="158"/>
      <point x="597" y="280" type="curve" name="sv02"/>
    </contour>
  </outline>
</glyph>
<glyph name="G.ss14" format="2">
  <advance width="775"/>
  <anchor x="391" y="-19" name="bottom"/>
  <anchor x="391" y="719" name="top"/>
  <outline>
    <contour>
      <point x="377" y="261" type="line"/>
      <point x="609" y="261" type="line"/>
      <point x="597.924" y="133.294"/>
      <point x="526.432" y="80"/>
      <point x="406.607" y="80" type="curve" smooth="yes"/>
      <point x="273.693" y="80"/>
      <point x="173" y="186.394"/>
      <point x="173" y="351.004" type="curve" smooth="yes"/>
      <point x="173" y="515.613"/>
      <point x="253.521" y="620"/>
      <point x="401.477" y="620" type="curve" smooth="yes"/>
      <point x="503.134" y="620"/>
      <point x="564.531" y="576.721"/>
      <point x="637" y="465" type="curve"/>
      <point x="676" y="593" type="line"/>
      <point x="607.671" y="675"/>
      <point x="515.226" y="720"/>
      <point x="399.669" y="720" type="curve" smooth="yes"/>
      <point x="185.639" y="720"/>
      <point x="53" y="567"/>
      <point x="53" y="351" type="curve" smooth="yes"/>
      <point x="53" y="138"/>
      <point x="180.656" y="-20"/>
      <point x="384.704" y="-20" type="curve" smooth="yes"/>
      <point x="562.618" y="-20"/>
      <point x="637" y="119.634"/>
      <point x="637" y="320.107" type="curve" smooth="yes"/>
      <point x="637" y="361" type="line"/>
      <point x="377" y="361" type="line"/>
    </contour>
    <contour>
      <point x="609" y="0" type="line"/>
      <point x="710" y="0" type="line"/>
      <point x="710" y="361" type="line"/>
      <point x="609" y="361" type="line"/>
    </contour>
  </outline>
</glyph>
<glyph name="Germandbls.ss10" format="2">
  <advance width="723"/>
  <outline>
    <contour>
      <point x="84" y="0" type="line"/>
      <point x="204" y="0" type="line"/>
      <point x="204" y="494" type="line" smooth="yes"/>
      <point x="204" y="577"/>
      <point x="253" y="619"/>
      <point x="350" y="619" type="curve" smooth="yes"/>
      <point x="399" y="619"/>
      <point x="434" y="608"/>
      <point x="469" y="594" type="curve"/>
      <point x="374" y="515" type="line" smooth="yes"/>
      <point x="307" y="460"/>
      <point x="292" y="430"/>
      <point x="292" y="395" type="curve" smooth="yes"/>
      <point x="292" y="316.018"/>
      <point x="368.674" y="285.031"/>
      <point x="439.066" y="254.86" type="curve" smooth="yes"/>
      <point x="498.795" y="229.26"/>
      <point x="554" y="204.247"/>
      <point x="554" y="151" type="curve" smooth="yes"/>
      <point x="554" y="109"/>
      <point x="522" y="80"/>
      <point x="476" y="80" type="curve" smooth="yes"/>
      <point x="414" y="80"/>
      <point x="366" y="133"/>
      <point x="315" y="216" type="curve"/>
      <point x="277" y="87" type="line"/>
      <point x="318" y="27"/>
      <point x="392" y="-20"/>
      <point x="486" y="-20" type="curve" smooth="yes"/>
      <point x="621" y="-20"/>
      <point x="674" y="77"/>
      <point x="674" y="153" type="curve" smooth="yes"/>
      <point x="674" y="248.821"/>
      <point x="589.093" y="286.085"/>
      <point x="516.135" y="318.231" type="curve" smooth="yes"/>
      <point x="461.177" y="342.445"/>
      <point x="413" y="363.755"/>
      <point x="413" y="405" type="curve" smooth="yes"/>
      <point x="413" y="435"/>
      <point x="438" y="457"/>
      <point x="468" y="484" type="curve" smooth="yes"/>
      <point x="638" y="635" type="line"/>
      <point x="575" y="688"/>
      <point x="461" y="720"/>
      <point x="347" y="720" type="curve" smooth="yes"/>
      <point x="156" y="720"/>
      <point x="84" y="631"/>
      <point x="84" y="499" type="curve" smooth="yes"/>
    </contour>
  </outline>
</glyph>
<glyph name="Germandbls.ss12" format="2">
  <advance width="693"/>
  <outline>
    <contour>
      <point x="84" y="0" type="line"/>
      <point x="204" y="0" type="line"/>
      <point x="204" y="462" type="line" smooth="yes"/>
      <point x="204" y="567"/>
      <point x="256" y="619"/>
      <point x="341" y="619" type="curve" smooth="yes"/>
      <point x="391" y="619"/>
      <point x="427" y="606"/>
      <point x="450" y="592" type="curve"/>
      <point x="400" y="548" type="line" smooth="yes"/>
      <point x="344" y="499"/>
      <point x="291" y="454"/>
      <point x="291" y="391" type="curve" smooth="yes"/>
      <point x="291" y="323.357"/>
      <point x="351.528" y="289.6"/>
      <point x="411.015" y="257.76" type="curve" smooth="yes"/>
      <point x="468.493" y="226.995"/>
      <point x="525" y="198.021"/>
      <point x="525" y="142" type="curve" smooth="yes"/>
      <point x="525" y="99"/>
      <point x="492" y="80"/>
      <point x="449" y="80" type="curve" smooth="yes"/>
      <point x="400" y="80"/>
      <point x="347" y="88"/>
      <point x="270" y="170" type="curve"/>
      <point x="261" y="86" type="line"/>
      <point x="308" y="18"/>
      <point x="374" y="-20"/>
      <point x="461" y="-20" type="curve" smooth="yes"/>
      <point x="597" y="-20"/>
      <point x="644" y="73"/>
      <point x="644" y="147" type="curve" smooth="yes"/>
      <point x="644" y="240.729"/>
      <point x="569.398" y="280.898"/>
      <point x="504.44" y="315.75" type="curve" smooth="yes"/>
      <point x="454.353" y="342.623"/>
      <point x="410" y="366.334"/>
      <point x="410" y="409" type="curve" smooth="yes"/>
      <point x="410" y="445"/>
      <point x="441" y="477"/>
      <point x="469" y="502" type="curve" smooth="yes"/>
      <point x="614" y="635" type="line"/>
      <point x="537" y="689"/>
      <point x="441" y="720"/>
      <point x="345" y="720" type="curve" smooth="yes"/>
      <point x="176" y="720"/>
      <point x="84" y="623"/>
      <point x="84" y="489" type="curve" smooth="yes"/>
    </contour>
  </outline>
</glyph>
<glyph name="Iacute_J.loclNLD.liga" format="2">
  <advance width="620"/>
  <outline>
    <contour>
      <point x="76" y="122" type="line"/>
      <point x="142" y="25"/>
      <point x="216" y="-20"/>
      <point x="321" y="-20" type="curve" smooth="yes" name="dv01"/>
      <point x="464" y="-20"/>
      <point x="546" y="64"/>
      <point x="546" y="222" type="curve" smooth="yes"/>
      <point x="546" y="700" type="line" name="at01"/>
      <point x="426" y="700" type="line"/>
      <point x="426" y="230" type="line" smooth="yes"/>
      <point x="426" y="127"/>
      <point x="392" y="80"/>
      <point x="321" y="80" type="curve" smooth="yes" name="dv02"/>
      <point x="261" y="80"/>
      <point x="197" y="114"/>
      <point x="147" y="193" type="curve"/>
    </contour>
    <contour>
      <point x="444" y="769" type="line"/>
      <point x="528" y="769" type="line"/>
      <point x="629" y="920" type="line"/>
      <point x="515" y="920" type="line"/>
    </contour>
    <contour>
      <point x="76" y="280.119" type="line"/>
      <point x="196" y="280.119" type="line"/>
      <point x="196" y="700" type="line"/>
      <point x="76" y="700" type="line"/>
    </contour>
    <contour>
      <point x="92" y="770" type="line"/>
      <point x="176" y="770" type="line"/>
      <point x="277" y="921" type="line"/>
      <point x="163" y="921" type="line"/>
    </contour>
  </outline>
</glyph>
<glyph name="J.ss10" format="2">
  <advance width="578"/>
  <anchor x="446" y="719" name="top"/>
  <anchor x="267" y="-20" name="bottom"/>
  <outline>
    <contour>
      <point x="32" y="107" type="line"/>
      <point x="89" y="28"/>
      <point x="164" y="-20"/>
      <point x="270" y="-20" type="curve" smooth="yes"/>
      <point x="423" y="-20"/>
      <point x="504" y="81"/>
      <point x="504" y="242" type="curve" smooth="yes"/>
      <point x="504" y="700" type="line"/>
      <point x="384" y="700" type="line"/>
      <point x="384" y="253.279" type="line" smooth="yes"/>
      <point x="384" y="135.089"/>
      <point x="342" y="80"/>
      <point x="258" y="80" type="curve" smooth="yes"/>
      <point x="187" y="80"/>
      <point x="129" y="119.253"/>
      <point x="71" y="235" type="curve"/>
    </contour>
  </outline>
</glyph>
<glyph name="a.ss02" format="2">
  <advance width="580"/>
  <anchor x="287" y="520" name="top"/>
  <anchor x="280" y="-20" name="bottom"/>
  <anchor x="490" y="-2" name="ogonek"/>
  <outline>
    <contour>
      <point x="376" y="164.97" type="curve"/>
      <point x="357.52" y="199.99"/>
      <point x="317.14" y="222"/>
      <point x="263" y="222" type="curve" smooth="yes"/>
      <point x="208" y="222"/>
      <point x="170" y="199"/>
      <point x="170" y="150" type="curve" smooth="yes"/>
      <point x="170" y="99"/>
      <point x="210" y="70"/>
      <point x="263" y="70" type="curve" smooth="yes"/>
      <point x="323.62" y="70"/>
      <point x="366.48" y="109.18"/>
    </contour>
    <contour>
      <point x="376" y="0" type="line"/>
      <point x="376" y="65.26" type="line"/>
      <point x="349.45" y="10.82"/>
      <point x="297.7" y="-20"/>
      <point x="228" y="-20" type="curve" smooth="yes"/>
      <point x="124" y="-20"/>
      <point x="50" y="49"/>
      <point x="50" y="146" type="curve" smooth="yes"/>
      <point x="50" y="243"/>
      <point x="124" y="312"/>
      <point x="231" y="312" type="curve" smooth="yes"/>
      <point x="298.25" y="312"/>
      <point x="349.22" y="284.45"/>
      <point x="376" y="235.8" type="curve"/>
      <point x="376" y="346.8" type="line" smooth="yes"/>
      <point x="376" y="400.93"/>
      <point x="347" y="430"/>
      <point x="287" y="430" type="curve" smooth="yes"/>
      <point x="233" y="430"/>
      <point x="175" y="406.65"/>
      <point x="143" y="362" type="curve"/>
      <point x="75" y="430" type="line"/>
      <point x="117" y="483"/>
      <point x="193" y="520"/>
      <point x="292" y="520" type="curve" smooth="yes"/>
      <point x="434" y="520"/>
      <point x="496" y="444"/>
      <point x="496" y="352" type="curve" smooth="yes"/>
      <point x="496" y="0" type="line"/>
    </contour>
  </outline>
</glyph>
<glyph name="aogonek.ss09" format="2">
  <advance width="570"/>
  <anchor x="290" y="520" name="top"/>
  <anchor x="285" y="-20" name="bottom"/>
  <outline>
    <contour>
      <point x="366" y="164.97" type="curve"/>
      <point x="347.52" y="199.99"/>
      <point x="307.14" y="222"/>
      <point x="253" y="222" type="curve" smooth="yes"/>
      <point x="198" y="222"/>
      <point x="160" y="199"/>
      <point x="160" y="150" type="curve" smooth="yes"/>
      <point x="160" y="99"/>
      <point x="200" y="70"/>
      <point x="253" y="70" type="curve" smooth="yes"/>
      <point x="313.62" y="70"/>
      <point x="356.48" y="109.18"/>
    </contour>
    <contour>
      <point x="366" y="0" type="line"/>
      <point x="366" y="65.26" type="line"/>
      <point x="339.45" y="10.82"/>
      <point x="287.7" y="-20"/>
      <point x="218" y="-20" type="curve" smooth="yes"/>
      <point x="114" y="-20"/>
      <point x="40" y="49"/>
      <point x="40" y="146" type="curve" smooth="yes"/>
      <point x="40" y="243"/>
      <point x="114" y="312"/>
      <point x="221" y="312" type="curve" smooth="yes"/>
      <point x="288.25" y="312"/>
      <point x="339.22" y="284.45"/>
      <point x="366" y="235.8" type="curve"/>
      <point x="366" y="356.82" type="line" smooth="yes"/>
      <point x="366" y="400.93"/>
      <point x="336" y="430"/>
      <point x="283" y="430" type="curve" smooth="yes"/>
      <point x="229" y="430"/>
      <point x="183" y="399"/>
      <point x="176" y="341" type="curve"/>
      <point x="61" y="341" type="line"/>
      <point x="69.27" y="455.16"/>
      <point x="146.79" y="520"/>
      <point x="284" y="520" type="curve" smooth="yes"/>
      <point x="412.84" y="520"/>
      <point x="486" y="459.16"/>
      <point x="486" y="352" type="curve" smooth="yes"/>
      <point x="486" y="0" type="line"/>
    </contour>
    <contour>
      <point x="440" y="-205" type="line"/>
      <point x="372" y="-195"/>
      <point x="328" y="-158"/>
      <point x="328" y="-109" type="curve" smooth="yes"/>
      <point x="328" y="-55"/>
      <point x="380" y="-13"/>
      <point x="463" y="3" type="curve"/>
      <point x="486" y="0" type="line"/>
      <point x="446" y="-24"/>
      <point x="421" y="-66"/>
      <point x="421" y="-103" type="curve" smooth="yes"/>
      <point x="421" y="-137"/>
      <point x="443" y="-168"/>
      <point x="487" y="-182" type="curve"/>
    </contour>
  </outline>
</glyph>
<glyph name="braceright.case" format="2">
  <advance width="366"/>
  <outline>
    <contour>
      <point x="52" y="-276" type="line"/>
      <point x="181" y="-208.35"/>
      <point x="224" y="-114.229"/>
      <point x="224" y="-15.2055" type="curve" smooth="yes"/>
      <point x="224" y="225" type="line" smooth="yes"/>
      <point x="224" y="296"/>
      <point x="282" y="332"/>
      <point x="334" y="342" type="curve"/>
      <point x="334" y="359" type="line"/>
      <point x="262" y="370"/>
      <point x="224" y="431"/>
      <point x="224" y="481" type="curve" smooth="yes"/>
      <point x="224" y="662.032" type="line" smooth="yes"/>
      <point x="224" y="757.15"/>
      <point x="181" y="859.428"/>
      <point x="52" y="930" type="curve"/>
      <point x="39" y="901" type="line"/>
      <point x="109" y="869.229"/>
      <point x="128" y="792.363"/>
      <point x="128" y="669.378" type="curve" smooth="yes"/>
      <point x="128" y="489" type="line" smooth="yes"/>
      <point x="128" y="425"/>
      <point x="148" y="375"/>
      <point x="235" y="349" type="curve"/>
      <point x="145" y="321"/>
      <point x="128" y="262"/>
      <point x="128" y="198" type="curve" smooth="yes"/>
      <point x="128" y="-25.967" type="line" smooth="yes"/>
      <point x="128" y="-145.286"/>
      <point x="111" y="-216.681"/>
      <point x="41" y="-247" type="curve"/>
    </contour>
  </outline>
</glyph>
<glyph name="c.ss09" format="2">
  <advance width="611"/>
  <anchor x="310" y="520" name="top"/>
  <anchor x="330" y="-20" name="bottom"/>
  <outline>
    <contour>
      <point x="435" y="167" type="line"/>
      <point x="432" y="111"/>
      <point x="388" y="70"/>
      <point x="324" y="70" type="curve" smooth="yes"/>
      <point x="231" y="70"/>
      <point x="179" y="134.358"/>
      <point x="179" y="246.983" type="curve" smooth="yes"/>
      <point x="179" y="361.62"/>
      <point x="226" y="430"/>
      <point x="317" y="430" type="curve" smooth="yes"/>
      <point x="381" y="430"/>
      <point x="430" y="389.828"/>
      <point x="437" y="333" type="curve"/>
      <point x="552" y="333" type="line"/>
      <point x="533" y="457.667"/>
      <point x="445" y="520"/>
      <point x="317" y="520" type="curve" smooth="yes"/>
      <point x="155" y="520"/>
      <point x="59" y="417"/>
      <point x="59" y="255" type="curve" smooth="yes"/>
      <point x="59" y="85"/>
      <point x="159" y="-20"/>
      <point x="322" y="-20" type="curve" smooth="yes"/>
      <point x="452" y="-20"/>
      <point x="540" y="47"/>
      <point x="550" y="167" type="curve"/>
    </contour>
  </outline>
</glyph>
<glyph name="d.ss11" format="2">
  <advance width="635"/>
  <anchor x="305" y="-20" name="bottom"/>
  <anchor x="318" y="750" name="top"/>
  <anchor x="587" y="700" name="topright"/>
  <outline>
    <contour>
      <point x="552" y="-10" type="line"/>
      <point x="552" y="700" type="line"/>
      <point x="432" y="700" type="line"/>
      <point x="432" y="104" type="line"/>
    </contour>
    <contour>
      <point x="289" y="70" type="curve" smooth="yes"/>
      <point x="220" y="70"/>
      <point x="170" y="142.201"/>
      <point x="170" y="255.515" type="curve" smooth="yes"/>
      <point x="170" y="364.819"/>
      <point x="219" y="430"/>
      <point x="290" y="430" type="curve" smooth="yes"/>
      <point x="380" y="430"/>
      <point x="432" y="361.811"/>
      <point x="432" y="256.518" type="curve" smooth="yes"/>
      <point x="432" y="145.209"/>
      <point x="374" y="70"/>
    </contour>
    <contour>
      <point x="268" y="-20" type="curve" smooth="yes"/>
      <point x="394" y="-20"/>
      <point x="454" y="84"/>
      <point x="454" y="255" type="curve" smooth="yes"/>
      <point x="454" y="426"/>
      <point x="389" y="520"/>
      <point x="268" y="520" type="curve" smooth="yes"/>
      <point x="133" y="520"/>
      <point x="50" y="419"/>
      <point x="50" y="255" type="curve" smooth="yes"/>
      <point x="50" y="88"/>
      <point x="136" y="-20"/>
    </contour>
  </outline>
</glyph>
<glyph name="dollar.ss10" format="2">
  <advance width="580"/>
  <outline>
    <contour>
      <point x="38" y="120.265" type="line"/>
      <point x="107" y="40.7672"/>
      <point x="201" y="0.0720003"/>
      <point x="313" y="0.0720003" type="curve" smooth="yes"/>
      <point x="445" y="0.0720003"/>
      <point x="531" y="72.111"/>
      <point x="531" y="200.075" type="curve" smooth="yes"/>
      <point x="531" y="329.194"/>
      <point x="421.484" y="361.941"/>
      <point x="322.76" y="391.46" type="curve" smooth="yes"/>
      <point x="241.747" y="415.684"/>
      <point x="168" y="437.735"/>
      <point x="168" y="509.084" type="curve" smooth="yes"/>
      <point x="168" y="565.009"/>
      <point x="199" y="605.768"/>
      <point x="269" y="605.768" type="curve" smooth="yes"/>
      <point x="352" y="605.768"/>
      <point x="410" y="567.666"/>
      <point x="482" y="459.076" type="curve"/>
      <point x="521" y="580.215" type="line"/>
      <point x="453" y="659.713"/>
      <point x="363" y="700.408"/>
      <point x="257" y="700.408" type="curve" smooth="yes"/>
      <point x="137" y="700.408"/>
      <point x="48" y="628.369"/>
      <point x="48" y="502.301" type="curve" smooth="yes"/>
      <point x="48" y="371.153"/>
      <point x="157.427" y="338.87"/>
      <point x="256.12" y="309.754" type="curve" smooth="yes"/>
      <point x="337.18" y="285.84"/>
      <point x="411" y="264.063"/>
      <point x="411" y="191.396" type="curve" smooth="yes"/>
      <point x="411" y="128.836"/>
      <point x="359" y="94.712"/>
      <point x="303" y="94.712" type="curve" smooth="yes"/>
      <point x="213" y="94.712"/>
      <point x="151" y="132.814"/>
      <point x="77" y="241.404" type="curve"/>
    </contour>
    <contour>
      <point x="263" y="-101" type="line"/>
      <point x="301" y="-101" type="line"/>
      <point x="301" y="780" type="line"/>
      <point x="263" y="780" type="line"/>
    </contour>
  </outline>
</glyph>
<glyph name="ereversedcyr.ss09" format="2">
  <advance width="611"/>
  <anchor x="305" y="520" name="top"/>
  <anchor x="305" y="-20" name="bottom"/>
  <outline>
    <contour>
      <point x="253" y="215" type="line"/>
      <point x="253" y="287" type="line"/>
      <point x="527" y="287" type="line"/>
      <point x="527" y="215" type="line"/>
    </contour>
    <contour>
      <point x="176" y="167" type="line"/>
      <point x="179" y="111"/>
      <point x="223" y="70"/>
      <point x="287" y="70" type="curve" smooth="yes"/>
      <point x="380" y="70"/>
      <point x="432" y="134.358"/>
      <point x="432" y="246.983" type="curve" smooth="yes"/>
      <point x="432" y="361.62"/>
      <point x="385" y="430"/>
      <point x="294" y="430" type="curve" smooth="yes"/>
      <point x="230" y="430"/>
      <point x="181" y="389.828"/>
      <point x="174" y="333" type="curve"/>
      <point x="59" y="333" type="line"/>
      <point x="78" y="457.667"/>
      <point x="166" y="520"/>
      <point x="294" y="520" type="curve" smooth="yes"/>
      <point x="456" y="520"/>
      <point x="552" y="417"/>
      <point x="552" y="255" type="curve" smooth="yes"/>
      <point x="552" y="85"/>
      <point x="452" y="-20"/>
      <point x="289" y="-20" type="curve" smooth="yes"/>
      <point x="159" y="-20"/>
      <point x="71" y="47"/>
      <point x="61" y="167" type="curve"/>
    </contour>
  </outline>
</glyph>
<glyph name="germandbls.ss09" format="2">
  <advance width="710"/>
  <outline>
    <contour>
      <point x="84" y="0" type="line"/>
      <point x="84" y="535" type="line" smooth="yes"/>
      <point x="84" y="685"/>
      <point x="185" y="751"/>
      <point x="321" y="751" type="curve" smooth="yes"/>
      <point x="449" y="751"/>
      <point x="548" y="692"/>
      <point x="548" y="569" type="curve" smooth="yes"/>
      <point x="548" y="452"/>
      <point x="457" y="443"/>
      <point x="457" y="370" type="curve" smooth="yes"/>
      <point x="457" y="263"/>
      <point x="652" y="271"/>
      <point x="652" y="122" type="curve" smooth="yes"/>
      <point x="652" y="28"/>
      <point x="574" y="-20"/>
      <point x="466" y="-20" type="curve" smooth="yes"/>
      <point x="344" y="-20"/>
      <point x="268" y="20"/>
      <point x="257" y="127" type="curve"/>
      <point x="377" y="127" type="line"/>
      <point x="387" y="84"/>
      <point x="410" y="72"/>
      <point x="460" y="72" type="curve" smooth="yes"/>
      <point x="512" y="72"/>
      <point x="532" y="97"/>
      <point x="532" y="129" type="curve" smooth="yes"/>
      <point x="532" y="227"/>
      <point x="337" y="223"/>
      <point x="337" y="351" type="curve" smooth="yes"/>
      <point x="337" y="437"/>
      <point x="428" y="476"/>
      <point x="428" y="563" type="curve" smooth="yes"/>
      <point x="428" y="622"/>
      <point x="387" y="661"/>
      <point x="321" y="661" type="curve" smooth="yes"/>
      <point x="243" y="661"/>
      <point x="204" y="605"/>
      <point x="204" y="497" type="curve" smooth="yes"/>
      <point x="204" y="0" type="line"/>
    </contour>
  </outline>
</glyph>
<glyph name="notequal.case" format="2">
  <advance width="523"/>
  <outline>
    <contour>
      <point x="135" y="184" type="line"/>
      <point x="183" y="184" type="line"/>
      <point x="230" y="280" type="line"/>
      <point x="469" y="280" type="line"/>
      <point x="469" y="300" type="line"/>
      <point x="239" y="300" type="line"/>
      <point x="341" y="510" type="line"/>
      <point x="469" y="510" type="line"/>
      <point x="469" y="530" type="line"/>
      <point x="351" y="530" type="line"/>
      <point x="388" y="606" type="line"/>
      <point x="340" y="606" type="line"/>
      <point x="303" y="530" type="line"/>
      <point x="55" y="530" type="line"/>
      <point x="55" y="510" type="line"/>
      <point x="293" y="510" type="line"/>
      <point x="191" y="300" type="line"/>
      <point x="55" y="300" type="line"/>
      <point x="55" y="280" type="line"/>
      <point x="182" y="280" type="line"/>
    </contour>
  </outline>
</glyph>
<glyph name="oe.ss12" format="2">
  <advance width="944"/>
  <outline>
    <contour>
      <point x="294.76" y="-20" type="curve" smooth="yes" name="dv01"/>
      <point x="457.72" y="-20"/>
      <point x="536.29" y="79"/>
      <point x="536.29" y="255" type="curve" smooth="yes"/>
      <point x="536.29" y="421"/>
      <point x="456.75" y="520"/>
      <point x="294.76" y="520" type="curve" smooth="yes" name="at01"/>
      <point x="143.44" y="520"/>
      <point x="53.23" y="421"/>
      <point x="53.23" y="255" type="curve" smooth="yes"/>
      <point x="53.23" y="79"/>
      <point x="144.41" y="-20"/>
    </contour>
    <contour>
      <point x="294.76" y="70" type="curve" smooth="yes" name="dv02"/>
      <point x="214.25" y="70"/>
      <point x="169.63" y="132.346"/>
      <point x="169.63" y="255.028" type="curve" smooth="yes"/>
      <point x="169.63" y="373.687"/>
      <point x="211.34" y="430"/>
      <point x="294.76" y="430" type="curve" smooth="yes" name="sv01"/>
      <point x="379.15" y="430"/>
      <point x="419.89" y="369.665"/>
      <point x="419.89" y="253.017" type="curve" smooth="yes"/>
      <point x="419.89" y="135.363"/>
      <point x="378.18" y="70"/>
    </contour>
    <contour>
      <point x="539.12" y="308" type="line"/>
      <point x="539.12" y="381"/>
      <point x="589.04" y="430"/>
      <point x="657.2" y="430" type="curve" smooth="yes"/>
      <point x="725.36" y="430"/>
      <point x="769.52" y="382"/>
      <point x="769.52" y="308" type="curve"/>
    </contour>
    <contour>
      <point x="855.92" y="154" type="line"/>
      <point x="799.28" y="97"/>
      <point x="742.64" y="70"/>
      <point x="681.512" y="70" type="curve" smooth="yes"/>
      <point x="591.92" y="70"/>
      <point x="536.24" y="128"/>
      <point x="536.24" y="236" type="curve"/>
      <point x="890.48" y="236" type="line"/>
      <point x="900.48" y="416"/>
      <point x="800.24" y="520"/>
      <point x="660.08" y="520" type="curve" smooth="yes"/>
      <point x="514.16" y="520"/>
      <point x="420.08" y="410"/>
      <point x="420.08" y="255" type="curve" smooth="yes"/>
      <point x="420.08" y="93"/>
      <point x="518.96" y="-20"/>
      <point x="671.647" y="-20" type="curve" smooth="yes"/>
      <point x="750.32" y="-20"/>
      <point x="806" y="10"/>
      <point x="862.64" y="80" type="curve"/>
    </contour>
  </outline>
</glyph>
<glyph name="one.osf" format="2">
  <advance width="611"/>
  <outline>
    <contour>
      <point x="284" y="0" type="line"/>
      <point x="404" y="0" type="line"/>
      <point x="404" y="548" type="line"/>
      <point x="300" y="548" type="line"/>
      <point x="245" y="456"/>
      <point x="173" y="383"/>
      <point x="70" y="363" type="curve"/>
      <point x="70" y="266" type="line"/>
      <point x="198" y="297"/>
      <point x="232" y="327"/>
      <point x="284" y="381" type="curve"/>
    </contour>
    <contour>
      <point x="60" y="0" type="line"/>
      <point x="551" y="0" type="line"/>
      <point x="551" y="100" type="line"/>
      <point x="60" y="100" type="line"/>
    </contour>
  </outline>
</glyph>
<glyph name="question.ss09" format="2">
  <advance width="551"/>
  <outline>
    <contour>
      <point x="178" y="47" type="curve" smooth="yes"/>
      <point x="178" y="11"/>
      <point x="207" y="-20"/>
      <point x="245" y="-20" type="curve" smooth="yes"/>
      <point x="284" y="-20"/>
      <point x="314" y="11"/>
      <point x="314" y="47" type="curve" smooth="yes"/>
      <point x="314" y="86"/>
      <point x="284" y="115"/>
      <point x="245" y="115" type="curve" smooth="yes"/>
      <point x="207" y="115"/>
      <point x="178" y="86"/>
    </contour>
    <contour>
      <point x="185" y="250" type="line"/>
      <point x="305" y="250" type="line"/>
      <point x="305" y="332" type="line"/>
      <point x="409" y="364"/>
      <point x="525" y="452"/>
      <point x="525" y="567" type="curve" smooth="yes"/>
      <point x="525" y="690"/>
      <point x="437" y="767"/>
      <point x="286" y="767" type="curve" smooth="yes"/>
      <point x="134" y="767"/>
      <point x="45" y="680"/>
      <point x="19" y="550" type="curve"/>
      <point x="139" y="550" type="line"/>
      <point x="156" y="631"/>
      <point x="202" y="667"/>
      <point x="290" y="667" type="curve" smooth="yes"/>
      <point x="365" y="667"/>
      <point x="405" y="632"/>
      <point x="405" y="568" type="curve" smooth="yes"/>
      <point x="405" y="484"/>
      <point x="346" y="424"/>
      <point x="185" y="355" type="curve"/>
    </contour>
  </outline>
</glyph>
<glyph name="r.ss10" format="2">
  <advance width="527"/>
  <anchor x="280" y="520" name="top"/>
  <anchor x="144" y="-20" name="bottom"/>
  <outline>
    <contour>
      <point x="84" y="0" type="line" name="ab02"/>
      <point x="204" y="0" type="line"/>
      <point x="204" y="207" type="line" smooth="yes" name="iv01"/>
      <point x="204" y="329.45"/>
      <point x="245.1" y="420"/>
      <point x="320.7" y="420" type="curve" smooth="yes" name="sv01"/>
      <point x="355.66" y="420"/>
      <point x="373.68" y="400.63"/>
      <point x="374.37" y="352.96" type="curve"/>
      <point x="489.38" y="373.97" type="line"/>
      <point x="491.48" y="475.39"/>
      <point x="427.74" y="520"/>
      <point x="355.97" y="520" type="curve" smooth="yes" name="at01"/>
      <point x="280.17" y="520"/>
      <point x="225.49" y="470.24"/>
      <point x="204" y="395.14" type="curve"/>
      <point x="204" y="500" type="line" name="av01"/>
      <point x="84" y="500" type="line"/>
    </contour>
  </outline>
</glyph>
<glyph name="schwa.ss12" format="2">
  <advance width="600"/>
  <anchor x="300" y="-20" name="bottom"/>
  <anchor x="300" y="520" name="top"/>
  <outline>
    <contour>
      <point x="417" y="210" type="curve"/>
      <point x="173" y="210" type="line"/>
      <point x="180" y="115"/>
      <point x="223" y="70"/>
      <point x="293" y="70" type="curve" smooth="yes"/>
      <point x="367" y="70"/>
      <point x="411" y="121"/>
    </contour>
    <contour>
      <point x="53" y="290" type="curve"/>
      <point x="420" y="290" type="line"/>
      <point x="420" y="371"/>
      <point x="365.837" y="430"/>
      <point x="291.613" y="430" type="curve" smooth="yes"/>
      <point x="214.381" y="430"/>
      <point x="157.208" y="408"/>
      <point x="88" y="357" type="curve"/>
      <point x="81" y="431" type="line"/>
      <point x="126" y="487"/>
      <point x="203" y="520"/>
      <point x="294" y="520" type="curve" smooth="yes"/>
      <point x="469" y="520"/>
      <point x="541" y="397"/>
      <point x="541" y="256" type="curve" smooth="yes"/>
      <point x="541" y="92"/>
      <point x="444" y="-20"/>
      <point x="292" y="-20" type="curve" smooth="yes"/>
      <point x="130" y="-20"/>
      <point x="50" y="108"/>
      <point x="50" y="253" type="curve" smooth="yes"/>
      <point x="50" y="265.21"/>
      <point x="51" y="277.79"/>
    </contour>
  </outline>
</glyph>
<glyph name="tcedilla.ss11" format="2">
  <advance width="353"/>
  <anchor x="158" y="630" name="top"/>
  <anchor x="256" y="700" name="topright"/>
  <anchor x="136" y="-218" name="bottom"/>
  <outline>
    <contour>
      <point x="94" y="0" type="line"/>
      <point x="214" y="0" type="line"/>
      <point x="214" y="410" type="line"/>
      <point x="324" y="410" type="line"/>
      <point x="324" y="500" type="line"/>
      <point x="214" y="500" type="line"/>
      <point x="214" y="620" type="line"/>
      <point x="94" y="620" type="line"/>
      <point x="94" y="500" type="line"/>
      <point x="19" y="500" type="line"/>
      <point x="19" y="410" type="line"/>
      <point x="94" y="410" type="line"/>
    </contour>
    <contour>
      <point x="29" y="-205" type="line"/>
      <point x="55" y="-211"/>
      <point x="84" y="-218"/>
      <point x="125" y="-218" type="curve" smooth="yes"/>
      <point x="208" y="-218"/>
      <point x="255" y="-189"/>
      <point x="255" y="-136" type="curve" smooth="yes"/>
      <point x="255" y="-89"/>
      <point x="219" y="-64"/>
      <point x="159" y="-64" type="curve"/>
      <point x="201.784" y="13.5458" type="line"/>
      <point x="128.784" y="13.5458" type="line"/>
      <point x="76" y="-90" type="line"/>
      <point x="91" y="-88"/>
      <point x="102" y="-86"/>
      <point x="115" y="-86" type="curve" smooth="yes"/>
      <point x="150" y="-86"/>
      <point x="171" y="-101"/>
      <point x="171" y="-130" type="curve" smooth="yes"/>
      <point x="171" y="-158"/>
      <point x="151" y="-177"/>
      <point x="115" y="-177" type="curve" smooth="yes"/>
      <point x="97" y="-177"/>
      <point x="69" y="-172"/>
      <point x="48" y="-166" type="curve"/>
    </contour>
  </outline>
</glyph>
<glyph name="tsecyr.loclBGR" format="2">
  <advance width="680"/>
  <outline>
    <contour>
      <point x="417" y="215" type="line"/>
      <point x="405" y="283" type="line"/>
      <point x="405" y="145.293"/>
      <point x="363" y="70"/>
      <point x="289" y="70" type="curve" smooth="yes"/>
      <point x="232" y="70"/>
      <point x="204" y="114.792"/>
      <point x="204" y="198.403" type="curve" smooth="yes"/>
      <point x="204" y="500" type="line"/>
      <point x="84" y="500" type="line"/>
      <point x="84" y="196" type="line" smooth="yes"/>
      <point x="84" y="51"/>
      <point x="142" y="-20"/>
      <point x="249" y="-20" type="curve" smooth="yes"/>
      <point x="343" y="-20"/>
      <point x="391" y="35"/>
      <point x="417" y="134" type="curve"/>
    </contour>
    <contour>
      <point x="405" y="0" type="line"/>
      <point x="525" y="0" type="line"/>
      <point x="525" y="500" type="line"/>
      <point x="405" y="500" type="line"/>
    </contour>
    <contour>
      <point x="499" y="0" type="line"/>
      <point x="566" y="0"/>
      <point x="552" y="-72"/>
      <point x="552" y="-140" type="curve"/>
      <point x="638" y="-140" type="line"/>
      <point x="638" y="52"/>
      <point x="617" y="88"/>
      <point x="517" y="88" type="curve"/>
    </contour>
  </outline>
</glyph>
<glyph name="two.osf.ss10" format="2">
  <advance width="612"/>
  <outline>
    <contour>
      <point x="57" y="0" type="line"/>
      <point x="556" y="0" type="line"/>
      <point x="556" y="100" type="line"/>
      <point x="57" y="100" type="line"/>
    </contour>
    <contour>
      <point x="57" y="54" type="line"/>
      <point x="339.934" y="117.856"/>
      <point x="536" y="193.728"/>
      <point x="536" y="374.818" type="curve" smooth="yes"/>
      <point x="536" y="501.759"/>
      <point x="453.468" y="571"/>
      <point x="310.476" y="571" type="curve" smooth="yes"/>
      <point x="203.952" y="571"/>
      <point x="121.419" y="528"/>
      <point x="60" y="444" type="curve"/>
      <point x="99" y="316" type="line"/>
      <point x="168.608" y="430"/>
      <point x="226.929" y="470"/>
      <point x="297.478" y="470" type="curve" smooth="yes"/>
      <point x="373.671" y="470"/>
      <point x="416" y="431.07"/>
      <point x="416" y="356.595" type="curve" smooth="yes"/>
      <point x="416" y="255.038"/>
      <point x="336.433" y="192.411"/>
      <point x="57" y="136" type="curve"/>
    </contour>
  </outline>
</glyph>
<glyph name="zecyr.loclBGR" format="2">
  <advance width="515"/>
  <outline>
    <contour>
      <point x="27" y="-118" type="curve"/>
      <point x="100" y="-45" type="line"/>
      <point x="136.257" y="-100.908"/>
      <point x="191.663" y="-132"/>
      <point x="255.034" y="-132" type="curve" smooth="yes" name="dv02"/>
      <point x="317.319" y="-132"/>
      <point x="357" y="-93.3213"/>
      <point x="357" y="-16.9122" type="curve" smooth="yes"/>
      <point x="357" y="80.2711"/>
      <point x="304.622" y="126.081"/>
      <point x="178" y="112" type="curve"/>
      <point x="178" y="197" type="line"/>
      <point x="281.716" y="203.802"/>
      <point x="337" y="249.87"/>
      <point x="337" y="329.494" type="curve" smooth="yes"/>
      <point x="337" y="404.128"/>
      <point x="304.225" y="429.632"/>
      <point x="250.06" y="429.632" type="curve" smooth="yes"/>
      <point x="188.817" y="429.632"/>
      <point x="151.911" y="399.369"/>
      <point x="118" y="357" type="curve"/>
      <point x="45" y="430" type="line"/>
      <point x="87.0257" y="482.783"/>
      <point x="151.334" y="519.632"/>
      <point x="251.204" y="519.632" type="curve" smooth="yes"/>
      <point x="379.732" y="519.632"/>
      <point x="457" y="439.422"/>
      <point x="457" y="331.047" type="curve" smooth="yes"/>
      <point x="457" y="231.425"/>
      <point x="389.945" y="164.08"/>
      <point x="313.656" y="164.08" type="curve"/>
      <point x="400.591" y="164.08"/>
      <point x="477" y="87.1895"/>
      <point x="477" y="-18.3551" type="curve" smooth="yes"/>
      <point x="477" y="-134.729"/>
      <point x="382.805" y="-222"/>
      <point x="257.196" y="-222" type="curve" smooth="yes" name="dv01"/>
      <point x="146.285" y="-222"/>
      <point x="77.514" y="-183.255"/>
    </contour>
  </outline>
</glyph>
